<svg xmlns="http://www.w3.org/2000/svg" xmlns:svg="http://www.w3.org/2000/svg" version="1.1" viewBox="-0.5 -1 54 54" xml:space="preserve" height="1.1em" style="vertical-align: baseline; position: relative; top: 0.1em">
    <g id="g32">
        <path class="st0" d="m 50.8,24.2 c -0.1,0 -0.2,0 -0.3,0 L 41.6,8 c 0.2,-0.3 0.2,-0.6 0.2,-1 0,-1.2 -1,-2.1 -2.1,-2.1 -0.6,0 -1.2,0.3 -1.5,0.7 L 20.6,2 c -0.1,-1.1 -1,-1.9 -2.1,-1.9 -1.2,0 -2.1,1 -2.1,2.1 0,0.4 0.1,0.7 0.2,1 L 2.9,22.9 c -0.2,0 -0.4,-0.1 -0.6,-0.1 -1.2,0 -2.1,1 -2.1,2.1 0,1.2 1,2.1 2.1,2.1 h 0.1 l 7.4,18.3 c -0.1,0.3 -0.2,0.6 -0.2,0.9 0,1.2 1,2.1 2.1,2.1 0.6,0 1.2,-0.3 1.5,-0.7 l 22.2,2.2 c 0.2,0.9 1.1,1.6 2.1,1.6 1.2,0 2.1,-1 2.1,-2.1 0,-0.5 -0.2,-1 -0.5,-1.4 L 50.3,28.4 c 0.1,0 0.2,0 0.4,0 1.2,0 2.1,-1 2.1,-2.1 0.1,-1.1 -0.8,-2.1 -2,-2.1 z M 38,8.3 c 0.3,0.3 0.6,0.6 1,0.7 l -3.4,25.4 c -0.2,0 -0.4,0.1 -0.6,0.2 l -18.5,-16 c 0,-0.2 0.1,-0.4 0.1,-0.6 0,-0.1 0,-0.3 0,-0.4 z M 48.7,27 37.3,34.8 C 37.2,34.7 37.1,34.7 37,34.6 L 40.5,9 v 0 l 8.7,16 c -0.3,0.4 -0.5,0.9 -0.5,1.4 -0.1,0.2 0,0.4 0,0.6 z M 14.2,15.9 c -1,0.2 -1.8,1 -1.8,2.1 v 0.1 L 4.8,22.6 16.6,5.7 Z m 0.8,4.2 c 0.3,-0.1 0.6,-0.2 0.8,-0.3 L 34.1,35.7 C 34,35.9 34,36.2 34,36.5 v 0.1 L 13.5,45 c -0.3,-0.4 -0.8,-0.8 -1.3,-0.9 z m 19.5,17.8 c 0.3,0.3 0.7,0.5 1.1,0.6 l 1,8.9 c -0.4,0.2 -0.8,0.6 -1,1 L 14.1,46.3 Z m 2.6,0.5 c 0.7,-0.3 1.2,-1.1 1.2,-1.9 0,-0.2 0,-0.4 -0.1,-0.5 L 48.6,28.9 38.1,47.1 Z M 37.6,6.9 15.9,16.4 C 15.8,16.3 15.7,16.3 15.7,16.2 L 18.5,4.4 h 0.1 c 0.8,0 1.4,-0.4 1.8,-1 z m -33.1,18 c 0,-0.1 0,-0.3 0,-0.4 l 8.6,-5.1 c 0.2,0.2 0.4,0.3 0.6,0.4 l -2.8,24 -7,-17.3 c 0.3,-0.4 0.6,-0.9 0.6,-1.6 z" id="path4" style="fill: currentColor;fill-opacity:1;"/>
        <path class="st1" d="m 40.5,9 8.7,16 c -0.3,0.4 -0.5,0.9 -0.5,1.4 0,0.2 0,0.4 0.1,0.6 L 37.4,34.8 C 37.3,34.7 37.2,34.7 37.1,34.6 L 40.5,9 v 0" id="path16" style="fill: currentColor;fill-opacity:0.53;"/>
        <path class="st2" d="m 37.1,38.4 c 0.7,-0.3 1.2,-1.1 1.2,-1.9 0,-0.2 0,-0.4 -0.1,-0.5 L 48.6,28.9 38.1,47.1 Z" id="path18" style="fill: currentColor;fill-opacity:0.7;"/>
        <path class="st3" d="m 34.5,37.9 c 0.3,0.3 0.7,0.5 1.1,0.6 l 1,8.9 c -0.4,0.2 -0.8,0.6 -1,1 L 14.1,46.3 Z" id="path20" style="fill: currentColor;fill-opacity:0.6;"/>
        <path class="st4" d="m 15,20.1 c 0.3,-0.1 0.6,-0.2 0.8,-0.3 L 34.1,35.7 C 34,35.9 34,36.2 34,36.5 v 0.1 L 13.5,45 c -0.3,-0.4 -0.8,-0.8 -1.3,-0.9 z" id="path22" style="fill: currentColor;fill-opacity:0.45;"/>
        <path class="st3" d="m 4.5,24.9 c 0,-0.1 0,-0.3 0,-0.4 l 8.6,-5.1 c 0.2,0.2 0.4,0.3 0.6,0.4 l -2.8,24 -7,-17.3 c 0.3,-0.4 0.6,-0.9 0.6,-1.6 z" id="path24" style="fill: currentColor;fill-opacity:0.55;"/>
        <path class="st2" d="m 14.2,15.9 c -1,0.2 -1.8,1 -1.8,2.1 v 0.1 L 4.8,22.6 16.6,5.7 Z" id="path26" style="fill: currentColor;fill-opacity:0.7;"/>
        <path class="st1" d="M 37.6,6.9 15.9,16.4 C 15.8,16.3 15.7,16.3 15.7,16.2 L 18.5,4.4 h 0.1 c 0.8,0 1.4,-0.4 1.8,-1 z" id="path28" style="fill: currentColor;fill-opacity:0.58;"/>
        <path class="st5" d="m 38,8.3 c 0.3,0.3 0.6,0.6 1,0.7 l -3.4,25.4 c -0.2,0 -0.4,0.1 -0.6,0.2 l -18.5,-16 c 0,-0.2 0.1,-0.4 0.1,-0.6 0,-0.1 0,-0.3 0,-0.4 z" id="path30" style="fill: currentColor;fill-opacity:0.4"/>
    </g>
</svg>
