<?xml version="1.0" encoding="utf-8"?>
<svg version="1.0" viewBox="0 0 48 48" preserveAspectRatio="xMidYMid meet" xmlns="http://www.w3.org/2000/svg" style="vertical-align: baseline; position: relative; top: 0.1em" height="1.1em">
  <g transform="translate(0.000000,48.000000) scale(0.100000,-0.100000)" fill="currentcolor" stroke="none">
    <path d="M 154.497 374.141 C 90.922 363.176 28.661 306.342 25.178 237.29 C 22.877 191.675 68.532 150.149 93.532 136.149 C 110.532 127.149 121.131 131.579 113.745 180.184 C 90.071 335.979 233.121 380.72 467.419 292.865 C 490.429 284.237 296.327 398.602 154.497 374.141 Z"/>
    <path d="M 159 271 C 141.142 253.142 133.727 232.746 131.376 212.469 C 127.065 175.286 143.975 134.657 174.382 114.668 C 187.953 105.747 204.298 101.81 221.654 100.683 C 234.456 99.853 247.808 99.202 261 106.153 C 274 113.153 275.87 122.249 275.87 100.185 C 275.87 100.185 301.836 100 309.836 100 L 310 155 L 310 210 L 219.571 209.587 L 220 179.262 L 262.416 179.729 C 276.879 179.729 273.584 163.737 260 150.153 C 251.485 141.638 235 136.153 216 138.153 C 176 142.153 153.757 194.129 176.757 234.129 C 194.757 266.129 232.521 272.252 258.357 258.201 C 272.441 250.541 272.197 238.13 272.197 238.13 L 308.118 238.516 C 312.701 245.243 305.791 264.653 293.096 276.26 C 274.644 293.131 253.623 296.748 234.024 298.212 C 207.572 300.187 182.551 293.977 159 271 Z"/>
    <path d="M 330 200 L 330 100 L 400 100 C 463 100 470.918 99.809 470.918 99.809 L 470.441 140.024 C 470.441 140.024 447.575 140 425 140 L 380 140 L 380 220 C 380 299 379.78 261.375 379.78 300 L 330 300 L 330 200 Z"/>
  </g>
</svg>
